<?xml version="1.0" standalone="no"?>
<!DOCTYPE svg PUBLIC "-//W3C//DTD SVG 20010904//EN"
 "http://www.w3.org/TR/2001/REC-SVG-20010904/DTD/svg10.dtd">
<svg version="1.0" xmlns="http://www.w3.org/2000/svg"
 width="1200.000000pt" height="1200.000000pt" viewBox="0 0 1200.000000 1200.000000"
 preserveAspectRatio="xMidYMid meet">
<metadata>
Created by potrace 1.11, written by Peter Selinger 2001-2013
</metadata>
<g transform="translate(0.000000,1200.000000) scale(0.100000,-0.100000)"
fill="#000000" stroke="none">
<path d="M7670 7910 c0 -2752 -3 -3451 -12 -3454 -7 -2 -87 -27 -178 -56 -91
-29 -185 -58 -210 -65 -25 -8 -106 -31 -180 -53 -136 -41 -320 -89 -375 -99
-16 -2 -32 -7 -34 -9 -2 -2 -10 1 -18 7 -7 7 -55 13 -106 14 -50 2 -95 4 -99
4 -5 1 -8 1234 -8 2740 l0 2739 -72 -3 c-114 -5 -295 -27 -408 -50 -14 -3 -37
-7 -53 -10 -15 -3 -60 -12 -100 -21 -39 -8 -83 -18 -96 -20 -52 -10 -290 -74
-351 -94 -158 -52 -305 -142 -342 -210 -11 -21 -14 -511 -18 -2814 -4 -2219
-8 -2790 -17 -2794 -7 -2 -13 -9 -13 -15 0 -15 -69 -78 -106 -97 -16 -8 -31
-18 -34 -21 -18 -24 -311 -102 -497 -133 -18 -4 -48 -9 -65 -12 -18 -3 -47 -7
-65 -9 -17 -2 -51 -7 -75 -10 -116 -18 -401 -36 -415 -26 -5 3 -8 1159 -8
2731 l0 2725 -105 0 c-58 1 -127 -3 -155 -7 -91 -13 -110 -16 -110 -18 0 -1
-7 -3 -15 -5 -8 -2 -24 -6 -35 -9 -11 -2 -51 -11 -90 -20 -38 -8 -115 -26
-170 -40 -97 -24 -342 -84 -377 -92 -10 -2 -26 -6 -35 -8 -10 -3 -70 -18 -133
-34 -141 -36 -210 -65 -211 -89 0 -10 -1 -1274 -1 -2808 l-1 -2791 -107 -71
c-59 -39 -138 -82 -176 -96 -38 -14 -143 -55 -234 -92 -160 -65 -191 -78 -275
-116 -22 -10 -62 -26 -90 -36 l-49 -18 -3 -72 -3 -71 62 -39 c33 -21 147 -94
253 -163 105 -69 200 -130 211 -137 61 -37 405 -255 494 -313 58 -38 148 -96
200 -130 141 -90 422 -272 530 -343 51 -34 99 -64 104 -66 6 -2 15 -8 21 -13
22 -19 117 -78 126 -78 5 0 9 -4 9 -8 0 -12 172 -96 248 -121 146 -47 347 -57
505 -25 12 2 36 6 52 9 161 24 465 126 697 234 l87 40 0 543 c0 299 1 552 1
562 0 17 6 18 58 13 156 -17 365 -98 592 -230 47 -27 105 -61 130 -75 25 -14
61 -35 80 -47 32 -19 186 -95 235 -115 51 -21 163 -60 185 -65 108 -23 174
-27 365 -21 115 3 226 8 245 10 19 3 64 7 100 11 36 3 94 10 130 16 36 6 81
13 100 15 128 17 338 88 382 129 59 54 58 42 57 547 0 254 0 511 1 570 l0 108
52 26 c88 44 123 39 268 -40 203 -111 221 -121 305 -166 44 -24 105 -60 135
-80 143 -96 355 -217 580 -333 232 -119 237 -119 744 48 123 40 239 80 257 88
19 8 69 28 112 43 90 33 162 84 189 134 19 34 19 58 14 865 -3 457 -8 895 -11
975 -14 446 -21 692 -31 1110 -7 317 -13 540 -19 770 -3 113 -7 302 -10 420
-7 299 -13 520 -20 765 -3 116 -7 293 -10 395 -2 102 -7 280 -10 395 -3 116
-7 291 -10 390 -2 99 -7 277 -11 395 -3 118 -6 269 -6 335 l0 120 -41 55 c-34
47 -130 146 -180 187 -16 12 -585 392 -742 494 -49 32 -95 63 -102 69 -7 5
-14 10 -16 10 -3 0 -65 40 -138 88 -74 49 -181 120 -239 157 -58 37 -141 91
-185 120 -44 29 -152 99 -240 156 -181 119 -224 144 -395 236 -14 7 -56 13
-97 13 l-73 0 0 -3450z"/>
</g>
</svg>
