<svg id="sprite" xmlns="http://www.w3.org/2000/svg" version="1.0" class="hidden">

<symbol id="icon-downarrow" viewBox="0 0 24 24" xmlns="http://www.w3.org/2000/svg">
	<path d="m3.9975605 8.1676949c.007.2380601.0981.4659101.2578095.6425801l7.00195 7.722649c.396981.438242 1.085451.438241 1.48243.000001l7.001949-7.72265c.582578-.6425129.12707-1.6713205-.74024-1.6718803h-14.0058483c-.5631405.0009102-1.0144898.4663998-.9980502 1.0293002z"/>
</symbol>


<symbol id="icon-help" xmlns="http://www.w3.org/2000/svg" data-name="Layer 1" viewBox="0 0 100 100" x="0px" y="0px">
	<g data-name="Group"><path data-name="Compound Path" d="M50,17.6A32.4,32.4,0,1,0,82.4,50,32.4,32.4,0,0,0,50,17.6Zm3.2,47.7H47.1v-6h6.2ZM59.1,48a15.4,15.4,0,0,1-3,2.8L54.6,52a4.4,4.4,0,0,0-1.6,2.2,9.1,9.1,0,0,0-.3,2.4H47.2a16.2,16.2,0,0,1,.7-4.8,8.5,8.5,0,0,1,2.8-3.1l1.5-1.2a5.3,5.3,0,0,0,1.2-1.2,4.2,4.2,0,0,0,.8-2.5,4.8,4.8,0,0,0-.9-2.9q-.9-1.3-3.3-1.3a3.7,3.7,0,0,0-3.4,1.6,6.1,6.1,0,0,0-1,3.3h-6q.2-5.9,4.1-8.3a10.8,10.8,0,0,1,6-1.6,12.9,12.9,0,0,1,7.7,2.2,7.6,7.6,0,0,1,3.1,6.6A7.5,7.5,0,0,1,59.1,48Z"></path></g>
</symbol>

<symbol id="icon-welcome" width="284px" height="150px" viewBox="0 0 284 150" version="1.1" xmlns="http://www.w3.org/2000/svg" xmlns:xlink="http://www.w3.org/1999/xlink">
<g>
    <path d="M143.6,52.17c5.52,5.01,10.92,9.91,16.7,15.16c5.32-4.83,10.53-9.55,16.58-15.03c0,14.21,0.18,27.27-0.09,40.32
        c-0.1,4.73-4.17,8.24-9.06,8.28c-16.14,0.12-32.29,0.15-48.44-0.02c-5.57-0.06-9.15-4.22-9.21-10.35
        c-0.12-12.31-0.03-24.62-0.03-38.37c5.94,5.37,11.12,10.06,16.72,15.12C132.33,62.28,137.84,57.33,143.6,52.17z"/>
</g>
</symbol>


<symbol id="icon-done" width="284px" height="150px" viewBox="0 0 284 150" version="1.1" xmlns="http://www.w3.org/2000/svg" xmlns:xlink="http://www.w3.org/1999/xlink">
<g>
    <path d="M143.6,52.17c5.52,5.01,10.92,9.91,16.7,15.16c5.32-4.83,10.53-9.55,16.58-15.03c0,14.21,0.18,27.27-0.09,40.32
        c-0.1,4.73-4.17,8.24-9.06,8.28c-16.14,0.12-32.29,0.15-48.44-0.02c-5.57-0.06-9.15-4.22-9.21-10.35
        c-0.12-12.31-0.03-24.62-0.03-38.37c5.94,5.37,11.12,10.06,16.72,15.12C132.33,62.28,137.84,57.33,143.6,52.17z"/>
</g>
</symbol>


<symbol id="icon-plugins" width="284px" height="150px" viewBox="0 0 284 150" version="1.1" xmlns="http://www.w3.org/2000/svg" xmlns:xlink="http://www.w3.org/1999/xlink">
<g>
    <path d="M143.6,52.17c5.52,5.01,10.92,9.91,16.7,15.16c5.32-4.83,10.53-9.55,16.58-15.03c0,14.21,0.18,27.27-0.09,40.32
        c-0.1,4.73-4.17,8.24-9.06,8.28c-16.14,0.12-32.29,0.15-48.44-0.02c-5.57-0.06-9.15-4.22-9.21-10.35
        c-0.12-12.31-0.03-24.62-0.03-38.37c5.94,5.37,11.12,10.06,16.72,15.12C132.33,62.28,137.84,57.33,143.6,52.17z"/>
</g>
</symbol>


<symbol id="icon-license" width="284px" height="150px" viewBox="0 0 284 150" version="1.1" xmlns="http://www.w3.org/2000/svg" xmlns:xlink="http://www.w3.org/1999/xlink">
<g>
    <path d="M143.6,52.17c5.52,5.01,10.92,9.91,16.7,15.16c5.32-4.83,10.53-9.55,16.58-15.03c0,14.21,0.18,27.27-0.09,40.32
        c-0.1,4.73-4.17,8.24-9.06,8.28c-16.14,0.12-32.29,0.15-48.44-0.02c-5.57-0.06-9.15-4.22-9.21-10.35
        c-0.12-12.31-0.03-24.62-0.03-38.37c5.94,5.37,11.12,10.06,16.72,15.12C132.33,62.28,137.84,57.33,143.6,52.17z"/>
</g>
</symbol>


<symbol id="icon-content" width="284px" height="150px" viewBox="0 0 284 150" version="1.1" xmlns="http://www.w3.org/2000/svg" xmlns:xlink="http://www.w3.org/1999/xlink">
<g>
    <path d="M143.6,52.17c5.52,5.01,10.92,9.91,16.7,15.16c5.32-4.83,10.53-9.55,16.58-15.03c0,14.21,0.18,27.27-0.09,40.32
        c-0.1,4.73-4.17,8.24-9.06,8.28c-16.14,0.12-32.29,0.15-48.44-0.02c-5.57-0.06-9.15-4.22-9.21-10.35
        c-0.12-12.31-0.03-24.62-0.03-38.37c5.94,5.37,11.12,10.06,16.72,15.12C132.33,62.28,137.84,57.33,143.6,52.17z"/>
</g>
</symbol>


<symbol id="icon-child" width="284px" height="150px" viewBox="0 0 284 150" version="1.1" xmlns="http://www.w3.org/2000/svg" xmlns:xlink="http://www.w3.org/1999/xlink">
<g>
    <path d="M143.6,52.17c5.52,5.01,10.92,9.91,16.7,15.16c5.32-4.83,10.53-9.55,16.58-15.03c0,14.21,0.18,27.27-0.09,40.32
        c-0.1,4.73-4.17,8.24-9.06,8.28c-16.14,0.12-32.29,0.15-48.44-0.02c-5.57-0.06-9.15-4.22-9.21-10.35
        c-0.12-12.31-0.03-24.62-0.03-38.37c5.94,5.37,11.12,10.06,16.72,15.12C132.33,62.28,137.84,57.33,143.6,52.17z"/>
</g>
</symbol>

</svg>
